<?xml version="1.0" standalone="no"?>
<!DOCTYPE svg PUBLIC "-//W3C//DTD SVG 20010904//EN"
 "http://www.w3.org/TR/2001/REC-SVG-20010904/DTD/svg10.dtd">
<svg version="1.0" xmlns="http://www.w3.org/2000/svg"
 width="1080.000000pt" height="538.000000pt" viewBox="0 0 1080.000000 538.000000"
 preserveAspectRatio="xMidYMid meet">

<g transform="translate(0.000000,538.000000) scale(0.100000,-0.100000)"
fill="#000000" stroke="none">
<path d="M8077 5334 c-1 -1 -616 -5 -1367 -8 -1261 -5 -1366 -7 -1377 -22 -15
-20 5 -20 -1568 -8 -1049 8 -3663 12 -3727 5 -21 -2 -38 -8 -38 -15 0 -8 422
-11 1708 -11 939 0 1765 -2 1837 -5 128 -5 129 -5 135 -30 9 -37 41 -37 68 0
l23 31 769 -3 c549 -2 774 -6 785 -14 13 -10 15 -48 13 -280 l-3 -269 -1065 1
c-586 1 -1470 2 -1965 3 -495 0 -1216 1 -1603 1 l-703 0 3 -32 3 -33 2635 -1
c1449 -1 2645 -2 2657 -3 12 0 28 -8 37 -16 13 -14 15 -262 14 -2235 l-1
-2219 -22 -15 c-17 -11 -25 -12 -34 -3 -6 6 -11 7 -11 2 0 -6 -158 -9 -412 -8
-303 1 -415 -2 -420 -10 -6 -9 -8 -9 -8 0 0 8 -40 11 -145 10 -80 -1 -145 -5
-145 -10 0 -6 -5 -5 -12 0 -7 5 -62 8 -123 6 -278 -9 -3970 -2 -3979 8 -4 4
-12 191 -22 509 -4 113 -8 207 -10 209 -2 2 -4 -192 -4 -432 0 -425 1 -437 19
-437 15 0 19 7 19 30 -1 36 9 50 23 30 8 -11 12 -12 16 -2 7 17 21 15 26 -5 4
-17 5 -17 6 0 1 18 51 26 51 7 0 -5 5 -10 11 -10 5 0 7 4 4 10 -4 6 18 10 59
10 53 0 65 -3 69 -18 4 -16 5 -16 6 1 1 13 10 17 45 17 26 0 46 -5 49 -12 4
-10 6 -10 6 0 1 7 14 12 31 12 17 0 30 -5 30 -12 0 -10 2 -10 8 -2 5 9 315 12
1207 10 1280 -1 3572 11 3618 20 29 6 36 -3 40 -52 2 -25 7 -29 33 -32 30 -3
32 -1 38 38 3 22 12 42 19 45 6 2 813 6 1792 10 1946 6 2875 14 2889 23 6 3
12 0 14 -6 2 -7 9 -9 15 -5 7 4 87 9 179 10 132 3 168 1 168 -9 0 -9 3 -9 10
2 9 13 11 13 20 0 5 -8 10 -10 10 -4 0 15 82 14 92 0 5 -8 8 -7 8 2 0 16 87
16 93 0 4 -10 6 -10 6 0 1 19 21 14 21 -5 1 -16 2 -16 16 2 13 17 16 18 24 5
7 -10 10 2 10 42 l0 57 -167 -4 c-93 -2 -312 -7 -488 -10 -176 -3 -444 -7
-595 -10 -1324 -22 -4120 -38 -4135 -23 -4 4 -10 1006 -13 2227 -5 2132 -4
2220 13 2238 18 17 126 18 2702 18 l2683 0 0 35 0 35 -707 -1 c-390 -1 -1603
-5 -2697 -9 -1843 -7 -1989 -7 -1983 9 4 9 2 16 -3 16 -6 0 -10 99 -10 259 l0
259 23 7 c35 11 4471 22 5180 12 l197 -3 0 38 0 37 -1360 -1 c-748 -1 -1361
-2 -1363 -4z"/>
<path d="M1114 5159 c-6 -11 -3 -308 3 -326 4 -9 32 -13 92 -13 81 0 88 2 118
29 70 63 72 207 4 291 -18 23 -26 25 -115 26 -53 1 -99 -2 -102 -7z m147 -34
c51 -31 69 -143 36 -218 -23 -49 -43 -62 -88 -55 -24 3 -24 5 -27 137 -2 98 1
137 10 142 15 10 48 7 69 -6z"/>
<path d="M1424 5155 c-3 -8 -3 -54 0 -102 3 -48 5 -121 6 -160 l0 -73 105 0
c87 0 105 3 105 15 0 12 -14 15 -69 15 -63 0 -69 2 -75 23 -10 37 -7 102 6
115 7 7 38 12 71 12 42 0 58 3 54 13 -2 7 -25 12 -59 13 -30 1 -60 4 -67 8 -6
4 -11 27 -11 50 0 50 10 56 98 56 28 0 52 5 52 10 0 12 6 11 -113 16 -78 3
-99 1 -103 -11z"/>
<path d="M1761 5143 c-19 -24 -22 -36 -17 -77 6 -52 12 -59 95 -108 42 -24 46
-29 46 -65 0 -34 -3 -38 -28 -41 -17 -2 -34 3 -40 11 -7 8 -24 17 -39 19 -24
4 -28 2 -28 -17 0 -28 37 -44 106 -44 43 -1 56 4 78 25 45 46 47 123 3 145
-12 7 -26 18 -30 25 -4 8 -16 14 -26 14 -25 0 -71 42 -71 65 0 27 30 44 58 34
12 -5 22 -13 22 -19 0 -14 52 -9 56 5 2 6 -3 19 -11 29 -12 16 -30 21 -83 23
-64 3 -69 2 -91 -24z"/>
<path d="M2092 5163 c-27 -10 -57 -50 -75 -99 -17 -48 -20 -104 -5 -104 4 0
10 -17 14 -37 7 -39 40 -83 62 -83 6 0 12 -4 12 -10 0 -6 26 -10 59 -10 50 0
65 4 88 25 22 19 25 27 14 34 -17 11 -51 2 -58 -15 -3 -9 -20 -14 -42 -14 -56
1 -75 34 -79 141 -4 79 -2 88 20 114 29 33 83 39 104 11 7 -10 22 -16 35 -14
26 3 39 28 15 28 -10 0 -13 6 -10 15 4 9 0 15 -7 16 -55 5 -136 5 -147 2z"/>
<path d="M2343 5152 c-7 -17 4 -310 12 -323 4 -5 15 -9 26 -9 19 0 21 5 23 88
2 63 68 62 81 0 4 -15 13 -28 21 -28 8 0 14 -6 14 -14 0 -24 29 -46 61 -46 16
0 29 4 29 10 0 16 -42 90 -51 90 -5 0 -9 14 -9 30 0 17 4 30 9 30 21 0 48 101
31 118 -3 2 -4 6 -15 40 -5 16 -15 22 -39 23 -17 0 -66 2 -110 3 -59 2 -79 -1
-83 -12z m168 -27 c16 -10 11 -102 -7 -119 -19 -19 -94 -22 -95 -3 -1 6 -3 34
-5 61 -6 63 7 79 58 72 22 -3 43 -8 49 -11z"/>
<path d="M2822 5162 c-22 -3 -23 -5 -21 -149 0 -81 5 -156 9 -168 19 -50 66
-5 55 53 -7 38 23 61 82 63 62 3 82 13 99 54 20 50 17 90 -9 119 -20 22 -33
25 -107 28 -47 2 -95 2 -108 0z m139 -44 c18 -12 23 -24 23 -57 0 -50 -19 -72
-64 -75 -25 -2 -34 2 -38 16 -2 10 -8 18 -12 18 -13 0 -6 86 8 103 16 18 51
16 83 -5z"/>
<path d="M2661 5003 c1 -87 4 -164 6 -170 3 -7 15 -13 28 -13 13 0 25 6 28 13
3 10 2 273 -2 315 0 7 -14 12 -32 12 l-30 0 2 -157z"/>
<path d="M3148 5130 c-16 -16 -28 -35 -28 -43 0 -8 -7 -28 -16 -46 -17 -33
-12 -101 6 -101 6 0 10 -12 10 -26 0 -26 48 -84 69 -84 6 0 11 -3 11 -7 0 -10
63 -8 108 1 31 7 58 37 45 50 -12 11 -44 6 -49 -8 -12 -30 -94 -31 -94 0 0 8
-6 14 -14 14 -19 0 -26 32 -26 121 0 65 3 80 23 101 24 27 63 42 73 27 3 -5 9
-7 14 -4 4 3 13 -2 20 -10 16 -19 50 -19 50 -1 0 33 -30 46 -103 46 -66 -1
-74 -3 -99 -30z"/>
<path d="M3438 5148 c-6 -15 1 -297 7 -316 3 -7 15 -12 27 -10 23 3 23 4 23
168 l0 165 -26 3 c-15 2 -29 -3 -31 -10z"/>
<path d="M3632 5153 c-12 -2 -20 -8 -17 -13 3 -5 -4 -15 -15 -23 -11 -7 -21
-22 -23 -33 -2 -10 -9 -32 -15 -47 -12 -29 -12 -97 0 -97 3 0 9 -14 13 -31 4
-17 13 -33 21 -36 7 -2 16 -13 19 -23 3 -11 20 -21 43 -25 52 -11 112 -12 112
-3 0 4 9 8 20 8 11 0 20 6 20 14 0 8 7 16 15 20 8 3 15 12 15 21 0 8 4 15 9
15 22 0 31 131 11 156 -6 6 -7 14 -3 17 3 4 1 7 -5 7 -7 0 -12 5 -12 11 0 7
-12 22 -26 35 -20 20 -39 25 -92 28 -37 2 -77 1 -90 -1z m104 -33 c8 0 17 -7
20 -15 4 -8 10 -12 15 -10 5 3 11 -7 15 -22 3 -15 10 -40 14 -55 5 -15 6 -38
3 -50 -3 -13 -7 -36 -10 -51 -6 -34 -44 -77 -66 -77 -25 0 -47 11 -41 21 3 5
-1 9 -9 9 -30 0 -51 51 -50 126 0 62 4 75 24 97 30 31 63 49 67 36 2 -5 10 -9
18 -9z"/>
<path d="M3942 5149 l-24 -9 7 -153 c3 -83 10 -156 15 -161 5 -5 16 -6 24 -3
13 5 16 22 16 77 0 68 1 70 25 70 20 0 25 -6 31 -35 3 -20 12 -35 20 -35 8 0
14 -9 14 -19 0 -47 73 -89 86 -49 3 10 5 69 5 130 0 208 3 188 -31 188 -29 0
-29 0 -32 -67 -3 -59 -5 -68 -22 -68 -13 0 -23 11 -29 30 -6 17 -13 32 -17 35
-7 6 -23 40 -24 54 -2 15 -40 24 -64 15z"/>
<path d="M8351 5122 c-55 -4 -86 -34 -102 -98 -21 -82 5 -158 64 -191 12 -7
46 -12 75 -13 45 0 57 4 77 26 20 22 25 38 25 79 0 59 -8 66 -61 60 -40 -5
-49 -14 -26 -26 23 -14 22 -64 -3 -89 -33 -33 -53 -24 -87 37 -19 33 -17 132
2 139 8 4 15 13 15 20 0 23 47 36 73 20 12 -8 32 -17 45 -21 17 -5 22 -2 22
12 -1 42 -26 51 -119 45z"/>
<path d="M8551 5120 c-12 -7 -16 -40 -19 -148 -5 -161 -12 -152 111 -152 49 0
67 4 67 13 0 9 -15 14 -46 14 -57 1 -66 10 -62 59 3 37 6 40 45 49 40 10 66
24 47 26 -5 1 -24 3 -43 5 -40 5 -51 17 -51 61 0 38 8 44 62 49 40 4 56 10 47
18 -10 9 -146 15 -158 6z"/>
<path d="M8791 5121 c-11 -7 -15 -42 -17 -149 -3 -136 -3 -140 18 -146 32 -8
47 10 50 62 4 64 24 61 66 -11 26 -46 38 -58 55 -55 13 2 24 13 28 28 10 36
11 268 1 274 -5 3 -18 2 -30 -1 -18 -4 -22 -13 -22 -43 0 -56 -8 -72 -30 -60
-10 6 -22 20 -26 32 -19 62 -58 91 -93 69z"/>
<path d="M7536 5111 c-10 -16 -19 -207 -12 -245 7 -37 24 -49 47 -35 11 6 14
38 14 146 0 134 -1 138 -22 141 -11 2 -24 -1 -27 -7z"/>
<path d="M7629 5118 c-5 -9 -7 -229 -3 -255 9 -59 74 -52 74 8 0 19 5 29 15
29 8 0 15 -8 15 -18 0 -53 71 -84 78 -34 2 12 7 22 12 22 5 0 11 13 15 30 6
28 24 51 26 33 8 -102 16 -120 49 -107 19 8 27 8 67 -1 29 -7 34 -4 42 17 21
55 109 60 126 8 7 -23 51 -38 67 -22 7 7 5 21 -5 43 -9 19 -19 53 -22 77 -4
23 -11 42 -16 42 -5 0 -9 9 -9 20 0 11 -10 40 -22 65 -19 40 -26 45 -55 45
-20 0 -33 -5 -33 -12 0 -7 -6 -25 -14 -39 -7 -14 -16 -39 -20 -55 -4 -16 -13
-42 -20 -59 -7 -16 -18 -42 -24 -57 -11 -26 -32 -39 -32 -20 0 4 -2 59 -3 122
l-2 115 -52 3 c-47 3 -53 1 -54 -17 -2 -28 -2 -30 -25 -78 -10 -24 -21 -43
-24 -43 -8 0 -29 52 -35 89 -3 19 -8 38 -11 43 -4 7 -102 12 -105 6z m479
-140 c11 -14 5 -68 -8 -68 -49 0 -57 73 -9 79 4 1 11 -5 17 -11z"/>
<path d="M73 3522 l-33 -3 0 -179 c0 -130 3 -181 12 -186 7 -4 53 -9 103 -9
81 -2 93 1 125 23 39 28 70 101 70 165 0 80 -64 186 -114 188 -72 3 -135 4
-163 1z m182 -58 c14 -15 25 -33 25 -40 0 -8 5 -14 10 -14 6 0 10 -30 10 -70
0 -40 -4 -70 -10 -70 -5 0 -10 -11 -10 -24 0 -14 -10 -36 -22 -49 -20 -20 -32
-23 -85 -22 -34 1 -66 5 -70 9 -5 4 -10 71 -11 148 -5 162 -3 164 83 161 46
-2 60 -7 80 -29z"/>
<path d="M2329 3503 c-1 -10 -2 -22 -4 -28 -1 -5 -3 -20 -3 -32 -2 -21 -7 -23
-62 -23 -45 0 -62 -4 -66 -15 -4 -8 -12 -15 -19 -15 -17 0 -25 -32 -25 -100 0
-68 8 -100 25 -100 8 0 16 -9 20 -19 5 -17 14 -19 61 -16 31 2 58 6 61 9 4 3
12 1 19 -5 22 -18 25 5 22 186 -2 124 -6 169 -15 173 -7 2 -14 -5 -14 -15z
m-31 -133 c2 -13 10 -30 18 -37 19 -20 19 -102 -1 -109 -8 -4 -15 -14 -15 -24
0 -22 -34 -30 -66 -17 -26 11 -54 67 -54 108 0 34 28 101 39 95 4 -3 13 -1 19
3 25 15 57 5 60 -19z"/>
<path d="M2893 3504 c-5 -15 5 -335 11 -342 2 -1 11 0 20 4 12 5 16 20 16 69
0 95 0 95 90 95 99 0 110 -10 110 -103 0 -38 4 -67 10 -67 6 0 10 31 11 73 1
126 -2 281 -6 285 -14 14 -25 -19 -25 -75 0 -83 -10 -92 -106 -93 -84 0 -84 0
-84 101 0 63 -2 69 -20 69 -11 0 -23 -7 -27 -16z"/>
<path d="M686 3474 c-3 -9 -6 -24 -6 -35 0 -10 -7 -19 -15 -19 -21 0 -19 -17
5 -30 18 -10 20 -21 20 -114 0 -98 1 -105 24 -119 43 -29 86 -7 46 23 -23 17
-25 27 -28 108 -4 84 -3 90 17 97 27 8 27 35 1 35 -16 0 -20 7 -20 35 0 28 -4
35 -19 35 -10 0 -22 -7 -25 -16z"/>
<path d="M1380 3455 c0 -24 -5 -35 -15 -35 -8 0 -15 -7 -15 -15 0 -8 7 -15 15
-15 12 0 15 -14 15 -69 0 -37 3 -89 6 -114 6 -43 9 -47 41 -53 40 -8 55 2 30
21 -41 30 -48 184 -9 216 21 16 21 16 -4 30 -19 10 -24 19 -20 35 4 14 1 24
-10 28 -29 11 -34 6 -34 -29z"/>
<path d="M4853 3419 c-13 -4 -23 -13 -23 -19 0 -5 -6 -10 -14 -10 -34 0 -31
-154 3 -181 12 -10 21 -22 21 -28 0 -6 5 -11 10 -11 15 0 12 15 -11 60 -48 92
7 209 81 170 24 -13 50 -65 50 -100 0 -34 -27 -90 -54 -112 -18 -15 -18 -18
-4 -18 9 0 32 14 50 30 31 29 33 34 33 99 0 61 -3 72 -26 95 -29 29 -80 40
-116 25z"/>
<path d="M5155 3420 c-4 -6 5 -10 19 -10 52 0 66 -30 66 -135 0 -78 3 -95 15
-95 12 0 15 18 15 103 -1 70 -5 108 -14 120 -15 19 -92 32 -101 17z"/>
<path d="M443 3392 c-24 -21 -32 -36 -33 -67 -5 -96 -1 -112 33 -147 30 -31
38 -34 83 -32 74 3 74 3 74 19 0 8 7 15 15 15 8 0 15 7 15 15 0 18 -30 16 -45
-3 -6 -7 -27 -14 -47 -15 -30 -3 -41 2 -56 22 -25 34 -33 69 -19 78 7 4 48 8
92 8 44 0 79 3 78 8 -2 4 -3 20 -3 35 0 17 -11 41 -28 60 -25 28 -35 32 -79
32 -40 0 -55 -5 -80 -28z m135 -29 c25 -34 8 -47 -65 -49 -47 -1 -53 1 -53 19
0 11 9 31 21 43 17 19 26 21 52 13 18 -5 38 -17 45 -26z"/>
<path d="M850 3391 c-22 -23 -25 -35 -25 -102 0 -67 3 -78 28 -108 15 -18 27
-29 27 -26 0 4 6 3 13 -2 23 -17 103 -7 126 16 26 26 27 41 1 41 -11 0 -20 -7
-20 -15 0 -8 -8 -15 -17 -16 -10 0 -29 -2 -43 -4 -20 -2 -31 4 -49 30 -12 19
-21 44 -19 57 3 22 7 23 88 23 l85 1 -1 36 c-1 25 -10 46 -29 66 -24 26 -35
29 -84 30 -48 0 -60 -4 -81 -27z m141 -23 c5 -7 8 -22 7 -33 -3 -18 -10 -20
-63 -20 -67 0 -79 13 -48 53 15 19 25 22 57 18 21 -2 43 -10 47 -18z"/>
<path d="M1126 3386 c-26 -29 -27 -36 -24 -106 4 -66 8 -79 32 -103 38 -38
111 -39 146 -2 13 14 22 25 19 26 -2 0 -12 2 -21 4 -10 2 -22 -4 -27 -12 -14
-26 -56 -24 -81 2 -23 25 -36 88 -26 128 11 44 43 75 72 69 15 -3 29 -13 31
-22 3 -12 11 -16 24 -13 23 6 23 7 4 37 -14 20 -24 24 -69 24 -46 -1 -56 -5
-80 -32z"/>
<path d="M1582 3413 c-7 -3 -24 -15 -38 -28 -21 -20 -24 -31 -24 -93 0 -78 6
-102 25 -102 8 0 16 -8 19 -18 5 -15 18 -19 59 -21 46 -2 56 2 80 27 22 23 28
39 29 78 3 97 -1 116 -22 121 -11 3 -20 12 -20 19 0 8 -1 14 -2 15 -18 5 -96
7 -106 2z m85 -44 c3 -11 12 -19 19 -19 20 0 19 -113 -1 -130 -8 -7 -15 -18
-15 -25 0 -13 -34 -23 -61 -17 -9 1 -26 21 -38 44 -27 52 -21 115 15 151 28
28 74 26 81 -4z"/>
<path d="M1803 3405 c-7 -20 3 -244 11 -252 15 -15 28 19 27 68 -1 71 17 159
34 165 7 3 21 7 31 8 10 2 20 8 22 14 5 15 -44 16 -53 2 -4 -6 -12 -7 -18 -3
-23 14 -48 13 -54 -2z"/>
<path d="M2462 3392 c-13 -14 -26 -40 -29 -59 -4 -24 -8 -30 -14 -21 -6 9 -9
4 -9 -15 0 -16 4 -26 9 -23 5 3 12 -11 16 -31 10 -55 48 -85 109 -87 38 -2 55
3 75 20 35 30 23 38 -23 15 -49 -26 -91 -13 -114 35 -23 48 -6 62 78 65 106 4
112 8 88 62 -17 36 -38 35 -38 -3 l0 -30 -60 0 c-66 0 -80 12 -60 49 13 26 57
38 81 23 19 -12 49 -6 49 8 0 14 -36 21 -87 18 -35 -2 -54 -9 -71 -26z"/>
<path d="M3245 3410 c-15 -24 1 -220 18 -220 5 0 15 -7 22 -16 9 -13 24 -15
88 -9 l77 7 1 32 c1 17 2 47 3 66 2 19 -2 41 -8 48 -7 10 -6 16 3 22 10 6 10
9 1 15 -9 6 -9 10 1 17 11 7 11 11 2 15 -7 2 -13 11 -13 19 0 8 -4 14 -10 14
-6 0 -10 -38 -10 -95 0 -82 -2 -95 -17 -95 -9 0 -13 -3 -10 -6 3 -4 2 -14 -3
-23 -12 -23 -90 -29 -90 -7 0 8 -5 16 -12 18 -8 3 -14 39 -16 106 -4 94 -11
118 -27 92z"/>
<path d="M3527 3413 c-9 -8 -9 -200 -1 -230 12 -45 24 -10 24 72 0 48 4 85 10
87 6 2 13 20 17 41 5 34 4 37 -19 37 -14 0 -28 -3 -31 -7z"/>
<path d="M3600 3412 c0 -4 10 -9 22 -9 64 -5 78 -34 78 -159 0 -43 4 -74 10
-74 6 0 10 6 10 13 3 95 9 146 20 163 14 22 7 60 -9 50 -5 -3 -11 1 -15 9 -4
11 -21 15 -61 15 -30 0 -55 -4 -55 -8z"/>
<path d="M3770 3411 c0 -6 12 -9 28 -7 16 1 36 -6 49 -18 20 -19 23 -31 23
-119 0 -74 3 -98 13 -95 8 3 13 35 15 101 4 125 -8 147 -79 147 -27 0 -49 -4
-49 -9z"/>
<path d="M4014 3405 c-4 -8 -12 -15 -19 -15 -17 0 -25 -32 -25 -101 0 -48 4
-60 31 -90 23 -25 30 -29 27 -14 -3 11 -7 27 -9 35 -2 8 -8 18 -12 21 -16 12
-11 95 8 127 18 30 56 49 75 37 6 -4 10 -1 10 4 0 17 -80 13 -86 -4z"/>
<path d="M4113 3407 c4 -10 7 -23 7 -28 0 -5 7 -9 15 -9 26 0 20 -100 -10
-151 -13 -24 -27 -43 -30 -41 -3 1 -17 1 -32 1 l-28 -1 30 -7 c34 -8 65 -3 65
10 0 5 9 18 21 30 18 18 21 30 17 89 -3 59 -7 72 -32 97 -21 20 -27 23 -23 10z"/>
<path d="M4560 3405 c0 -8 -6 -15 -14 -15 -24 0 -36 -114 -16 -165 5 -14 14
-24 19 -20 5 3 12 -3 16 -14 6 -21 42 -35 51 -20 3 5 -2 9 -10 9 -21 0 -56 75
-56 118 0 46 26 99 53 106 12 3 34 -1 49 -9 26 -12 28 -12 28 6 0 17 -7 19
-60 19 -47 0 -60 -3 -60 -15z"/>
<path d="M5072 3300 c3 -138 19 -161 30 -43 4 43 14 97 22 121 l15 42 -35 0
-35 0 3 -120z"/>
<path d="M2131 3284 c0 -11 3 -14 6 -6 3 7 2 16 -1 19 -3 4 -6 -2 -5 -13z"/>
<path d="M4667 3206 c-4 -9 -13 -16 -22 -16 -8 0 -15 -4 -15 -10 0 -12 36 -8
50 6 5 5 5 15 1 22 -7 11 -9 10 -14 -2z"/>
<path d="M4870 3180 c0 -5 5 -10 10 -10 6 0 10 5 10 10 0 6 -4 10 -10 10 -5 0
-10 -4 -10 -10z"/>
<path d="M9371 3084 c0 -11 3 -14 6 -6 3 7 2 16 -1 19 -3 4 -6 -2 -5 -13z"/>
<path d="M9642 3080 c0 -14 2 -19 5 -12 2 6 2 18 0 25 -3 6 -5 1 -5 -13z"/>
<path d="M9611 3074 c0 -11 3 -14 6 -6 3 7 2 16 -1 19 -3 4 -6 -2 -5 -13z"/>
<path d="M9670 3074 c0 -8 5 -12 10 -9 6 3 10 10 10 16 0 5 -4 9 -10 9 -5 0
-10 -7 -10 -16z"/>
<path d="M7162 3028 c-2 -10 -8 -15 -13 -12 -14 8 -31 -47 -23 -76 l7 -25 12
30 13 30 4 -25 c3 -18 7 -10 13 27 9 63 24 60 26 -5 1 -26 4 -37 6 -24 5 25
23 30 23 7 0 -8 5 -15 10 -15 6 0 10 24 10 53 l0 54 -42 -1 c-31 0 -42 -5 -46
-18z m68 -23 c0 -14 -4 -25 -10 -25 -5 0 -9 11 -8 25 1 14 6 25 10 25 4 0 8
-11 8 -25z"/>
<path d="M7265 3038 c-3 -7 -1 -33 4 -58 l9 -45 1 40 c2 63 20 28 23 -45 3
-64 3 -65 15 -30 6 19 12 27 12 18 2 -40 18 -14 20 33 2 41 -2 55 -21 74 -25
27 -56 33 -63 13z"/>
<path d="M9712 3000 c0 -14 2 -19 5 -12 2 6 2 18 0 25 -3 6 -5 1 -5 -13z"/>
<path d="M9670 2999 c0 -5 5 -7 10 -4 6 3 10 8 10 11 0 2 -4 4 -10 4 -5 0 -10
-5 -10 -11z"/>
<path d="M9742 2990 c0 -14 2 -19 5 -12 2 6 2 18 0 25 -3 6 -5 1 -5 -13z"/>
<path d="M7162 2890 c0 -14 2 -19 5 -12 2 6 2 18 0 25 -3 6 -5 1 -5 -13z"/>
<path d="M4977 2870 c-3 -8 -8 -32 -12 -52 -3 -21 -10 -38 -15 -38 -16 0 -11
-66 5 -80 16 -13 22 -100 7 -100 -5 0 -13 -15 -19 -34 -10 -32 -9 -34 16 -39
14 -3 28 -3 31 0 8 8 8 316 0 337 -6 17 -9 18 -13 6z"/>
<path d="M7230 2869 c0 -5 5 -7 10 -4 6 3 10 8 10 11 0 2 -4 4 -10 4 -5 0 -10
-5 -10 -11z"/>
<path d="M1206 2845 c-15 -23 -15 -25 4 -35 12 -6 20 -7 20 -1 0 5 7 16 15 25
14 13 13 16 -4 25 -15 9 -22 6 -35 -14z"/>
<path d="M1917 2864 c-4 -4 -7 -30 -7 -57 l0 -49 -50 4 c-28 1 -50 0 -50 -4 0
-4 -7 -5 -15 -2 -9 4 -15 0 -15 -9 0 -8 -9 -17 -20 -20 -18 -5 -20 -14 -20
-90 0 -77 2 -86 27 -113 28 -30 65 -38 115 -23 15 4 30 4 33 -1 3 -5 12 -7 21
-3 12 5 15 32 14 173 -1 113 -6 174 -14 185 -6 9 -15 13 -19 9z m-19 -173 c25
-51 29 -116 9 -128 -8 -4 -16 -16 -20 -25 -7 -18 -52 -25 -73 -10 -24 17 -44
59 -44 95 0 47 25 104 48 110 45 10 57 4 80 -42z"/>
<path d="M2511 2848 c-4 -11 -11 -19 -16 -18 -16 2 -28 -67 -20 -115 3 -25 11
-45 17 -45 6 0 16 -7 23 -17 11 -15 28 -17 95 -11 11 1 20 6 20 10 0 4 5 8 10
8 6 0 10 -18 10 -40 0 -29 -4 -40 -15 -40 -9 0 -15 -9 -15 -25 0 -19 -5 -25
-22 -26 -39 -2 -53 2 -65 19 -34 48 -53 55 -53 22 0 -32 49 -73 84 -71 17 1
39 2 48 2 9 0 20 9 23 20 4 10 12 19 20 19 7 0 16 12 19 28 17 83 24 157 17
171 -5 9 -11 33 -15 54 -4 22 -13 37 -21 37 -7 0 -16 8 -19 18 -9 28 -115 28
-125 0z m110 -26 c5 -12 13 -22 19 -22 5 0 10 -20 10 -45 0 -25 -4 -45 -9 -45
-5 0 -12 -11 -15 -24 -5 -21 -12 -24 -43 -23 -31 1 -41 7 -55 32 -21 38 -22
68 -3 105 26 50 81 63 96 22z"/>
<path d="M2748 2863 c-18 -5 -26 -43 -8 -43 5 0 14 -18 20 -40 6 -22 15 -40
19 -40 5 0 11 -22 15 -50 6 -46 8 -49 26 -37 11 6 16 13 10 15 -5 2 -10 16
-10 30 0 15 -6 39 -14 54 -8 14 -17 45 -21 67 -7 45 -11 49 -37 44z"/>
<path d="M3390 2850 c0 -11 -1 -83 -1 -160 0 -77 1 -149 1 -160 0 -15 7 -20
26 -20 25 0 26 2 21 37 -4 21 -11 39 -17 41 -16 6 -11 63 10 107 10 22 16 43
14 47 -3 5 11 8 32 8 57 0 84 -35 84 -108 0 -56 -23 -105 -49 -108 -6 -1 -20
-2 -31 -3 -36 -2 -21 -21 16 -21 42 0 75 29 95 83 15 43 -1 115 -34 151 -19
21 -30 24 -75 22 -45 -3 -52 -1 -52 15 0 11 -4 19 -10 19 -5 0 -10 16 -10 35
0 19 -4 35 -10 35 -5 0 -10 -9 -10 -20z"/>
<path d="M4186 2861 c-4 -7 -5 -15 -2 -18 9 -9 19 4 14 18 -4 11 -6 11 -12 0z"/>
<path d="M50 2701 c0 -190 4 -221 31 -214 10 3 19 10 19 15 0 7 5 7 13 0 7 -6
29 -13 49 -15 30 -3 43 1 70 26 32 30 33 33 33 110 0 63 -3 81 -17 91 -10 7
-18 18 -18 24 0 6 -8 15 -17 21 -22 11 -95 4 -104 -10 -10 -16 -19 17 -19 67
0 37 -3 44 -20 44 -19 0 -20 -7 -20 -159z m152 5 c25 -30 25 -139 0 -164 -43
-43 -97 -11 -109 65 -8 50 30 121 66 121 13 0 33 -10 43 -22z"/>
<path d="M2976 2835 c-3 -11 -6 -30 -6 -42 0 -12 -7 -29 -16 -37 -8 -9 -18
-41 -21 -72 -4 -32 -9 -50 -14 -43 -5 8 -10 -1 -14 -24 -4 -20 -11 -37 -15
-37 -16 0 -40 31 -40 51 0 10 -7 19 -15 19 -11 0 -13 -9 -9 -42 13 -97 77
-139 89 -59 4 20 13 48 21 63 8 14 14 34 14 45 0 10 6 30 14 45 8 15 22 51 31
80 9 29 18 58 21 65 3 7 -3 11 -15 10 -11 0 -22 -10 -25 -22z"/>
<path d="M594 2802 c-4 -20 -14 -43 -22 -51 -12 -13 -12 -16 7 -23 19 -7 21
-15 21 -108 0 -87 3 -102 20 -117 22 -19 58 -24 67 -10 3 5 -5 18 -18 28 -22
16 -24 27 -28 109 -3 86 -2 92 18 97 27 7 27 29 1 36 -14 4 -20 14 -20 35 0
21 -6 31 -20 35 -16 4 -21 -1 -26 -31z"/>
<path d="M3946 2833 c-3 -3 -6 -15 -6 -25 0 -10 -4 -18 -9 -18 -17 0 -22 -34
-7 -46 12 -9 16 -31 16 -95 0 -101 6 -126 31 -132 26 -7 31 5 13 37 -16 32
-20 176 -4 176 6 0 10 14 10 30 0 17 -4 30 -10 30 -5 0 -10 9 -10 19 0 21 -13
34 -24 24z"/>
<path d="M9501 2804 c0 -11 3 -14 6 -6 3 7 2 16 -1 19 -3 4 -6 -2 -5 -13z"/>
<path d="M9571 2804 c0 -11 3 -14 6 -6 3 7 2 16 -1 19 -3 4 -6 -2 -5 -13z"/>
<path d="M9712 2800 c0 -14 2 -19 5 -12 2 6 2 18 0 25 -3 6 -5 1 -5 -13z"/>
<path d="M9741 2794 c0 -11 3 -14 6 -6 3 7 2 16 -1 19 -3 4 -6 -2 -5 -13z"/>
<path d="M4448 2768 c-9 -5 -5 -8 12 -8 45 0 60 -31 65 -137 3 -53 8 -99 10
-102 13 -12 17 16 17 99 -1 102 -9 153 -23 144 -5 -3 -15 -2 -21 2 -18 11 -45
12 -60 2z"/>
<path d="M4853 2770 c-13 -5 -23 -14 -23 -20 0 -5 -6 -10 -14 -10 -8 0 -16
-17 -21 -42 -4 -24 -9 -51 -11 -60 -2 -9 1 -20 6 -23 6 -3 10 -17 10 -29 0
-24 39 -58 73 -63 24 -4 21 10 -5 22 -51 23 -65 124 -25 182 12 18 28 33 35
33 6 0 12 5 12 10 0 12 -7 12 -37 0z"/>
<path d="M5097 2747 c-14 -17 -29 -47 -32 -67 -7 -43 12 -120 30 -120 7 0 15
-8 17 -18 3 -10 15 -18 26 -19 28 -2 28 13 2 27 -11 6 -20 17 -20 25 0 8 -4
15 -10 15 -16 0 -12 57 5 64 8 3 15 10 15 15 0 5 -7 16 -15 25 -19 19 -19 22
5 46 35 35 120 15 120 -28 0 -20 -29 -45 -45 -38 -8 3 -15 1 -15 -5 0 -6 20
-9 48 -7 45 3 47 4 45 31 -3 46 -49 81 -104 82 -40 1 -51 -3 -72 -28z"/>
<path d="M358 2745 c-2 -11 -9 -19 -16 -17 -6 1 -12 -6 -12 -17 0 -22 32 -24
40 -3 3 8 8 12 11 10 3 -2 13 3 22 10 10 9 17 10 22 2 3 -6 10 -8 15 -5 18 11
50 -15 50 -40 0 -26 -10 -29 -72 -25 -18 1 -28 -4 -28 -12 0 -17 -49 -41 -51
-25 -2 16 -16 -42 -18 -70 0 -12 9 -32 22 -45 29 -30 110 -31 132 -2 13 18 14
18 20 2 4 -10 16 -18 26 -18 17 0 19 9 19 101 0 108 -17 168 -49 170 -134 4
-130 5 -133 -16z m132 -152 c0 -18 -4 -33 -9 -33 -5 0 -12 -9 -16 -19 -4 -15
-14 -19 -48 -17 -39 1 -42 3 -45 32 -2 25 1 33 17 37 12 3 21 11 21 19 0 9 13
13 40 13 39 0 40 -1 40 -32z"/>
<path d="M2105 2762 c-39 -5 -81 -49 -89 -93 -7 -40 10 -139 25 -139 5 0 18
-9 28 -19 15 -15 31 -18 75 -16 31 1 58 4 59 6 22 39 25 49 17 54 -5 3 -13 -2
-18 -12 -7 -12 -24 -18 -58 -19 -47 -2 -49 -1 -71 38 -13 22 -23 44 -23 49 0
13 61 26 117 24 29 -2 60 3 70 10 15 11 14 16 -11 59 -15 25 -28 46 -29 46 -1
0 -16 3 -32 8 -17 4 -43 6 -60 4z m63 -35 c8 -6 12 -5 13 4 0 8 5 1 10 -16 5
-16 7 -35 5 -40 -2 -6 -31 -12 -64 -13 -68 -2 -83 12 -56 54 12 18 24 24 48
22 17 -1 37 -6 44 -11z"/>
<path d="M3689 2742 c-21 -22 -24 -35 -24 -101 0 -67 3 -79 25 -101 18 -18 36
-25 69 -26 62 -3 99 32 102 96 4 91 0 120 -18 127 -10 4 -23 14 -30 22 -22 28
-16 -10 7 -44 27 -41 26 -106 -2 -150 -19 -29 -29 -35 -58 -35 -30 0 -38 6
-52 36 -26 51 -24 124 5 157 14 17 33 27 50 27 15 0 27 5 27 10 0 21 -77 7
-101 -18z"/>
<path d="M4123 2757 c-4 -8 -16 -16 -25 -20 -15 -5 -18 -20 -18 -93 0 -77 2
-86 20 -91 11 -3 20 -12 20 -19 0 -13 36 -20 84 -15 36 3 65 44 71 102 6 59
-6 115 -24 112 -6 -2 -11 3 -11 11 0 12 -40 26 -76 26 -30 0 -12 -17 18 -18
18 0 34 -6 36 -12 2 -6 10 -17 18 -24 16 -17 20 -141 4 -131 -5 3 -10 -1 -10
-9 0 -21 -39 -46 -69 -43 -53 4 -81 148 -37 192 9 9 16 23 16 31 0 18 -7 18
-17 1z"/>
<path d="M4355 2748 c-10 -46 0 -221 13 -225 9 -4 12 16 12 74 0 44 4 83 9 89
5 5 13 26 16 47 7 35 6 37 -19 37 -18 0 -27 -6 -31 -22z"/>
<path d="M757 2727 c-27 -30 -29 -36 -25 -107 3 -65 7 -78 29 -101 22 -22 37
-26 93 -28 46 -2 66 1 66 10 0 6 8 18 18 25 15 12 15 15 2 24 -21 14 -27 12
-32 -8 -4 -13 -16 -19 -46 -20 -33 -2 -44 2 -61 24 -12 15 -21 39 -21 54 0 28
1 28 68 28 121 0 112 -3 107 40 -3 20 -12 42 -20 48 -8 6 -15 16 -15 21 0 14
-36 23 -90 22 -37 -1 -50 -6 -73 -32z m113 3 c0 -5 6 -10 14 -10 7 0 16 -10
20 -22 9 -35 7 -41 -9 -35 -8 4 -16 3 -19 -1 -2 -4 -25 -6 -50 -4 -36 3 -46 8
-46 21 0 28 34 52 83 60 4 0 7 -3 7 -9z"/>
<path d="M1010 2638 c0 -126 3 -141 31 -146 13 -2 16 14 18 99 2 109 11 139
41 139 28 0 51 11 44 21 -9 16 -64 11 -64 -6 0 -8 -3 -15 -6 -15 -3 0 -12 7
-20 15 -9 8 -22 15 -30 15 -11 0 -14 -23 -14 -122z"/>
<path d="M1183 2744 c-6 -16 4 -244 11 -251 2 -2 11 -1 20 3 24 9 24 249 0
258 -22 8 -24 8 -31 -10z"/>
<path d="M1325 2741 c-3 -12 -11 -20 -17 -18 -6 1 -13 -4 -15 -10 -7 -18 34
-16 44 2 12 21 82 26 104 7 18 -16 27 -63 12 -61 -5 1 -27 1 -50 0 -31 -1 -43
-5 -43 -16 0 -8 -7 -16 -15 -16 -8 -1 -21 -2 -27 -3 -31 -2 -38 -94 -10 -118
23 -21 106 -23 126 -3 19 19 36 19 36 0 0 -18 14 -19 28 -2 14 16 9 171 -7
218 l-12 36 -74 2 c-66 2 -74 0 -80 -18z m133 -149 c2 -24 -1 -32 -12 -32 -9
0 -16 -9 -16 -20 0 -16 -7 -20 -34 -20 -19 0 -41 3 -50 6 -22 9 -21 63 2 71 9
4 21 13 25 20 6 9 22 13 45 11 33 -4 37 -7 40 -36z"/>
<path d="M9531 2734 c0 -11 3 -14 6 -6 3 7 2 16 -1 19 -3 4 -6 -2 -5 -13z"/>
<path d="M9602 2730 c0 -14 2 -19 5 -12 2 6 2 18 0 25 -3 6 -5 1 -5 -13z"/>
<path d="M9642 2730 c0 -14 2 -19 5 -12 2 6 2 18 0 25 -3 6 -5 1 -5 -13z"/>
<path d="M9672 2730 c0 -14 2 -19 5 -12 2 6 2 18 0 25 -3 6 -5 1 -5 -13z"/>
<path d="M9742 2715 c0 -16 2 -22 5 -12 2 9 2 23 0 30 -3 6 -5 -1 -5 -18z"/>
<path d="M9711 2714 c0 -11 3 -14 6 -6 3 7 2 16 -1 19 -3 4 -6 -2 -5 -13z"/>
<path d="M5145 2670 c-3 -5 -1 -10 4 -10 6 0 11 5 11 10 0 6 -2 10 -4 10 -3 0
-8 -4 -11 -10z"/>
<path d="M9601 2644 c0 -11 3 -14 6 -6 3 7 2 16 -1 19 -3 4 -6 -2 -5 -13z"/>
<path d="M9772 2640 c0 -14 2 -19 5 -12 2 6 2 18 0 25 -3 6 -5 1 -5 -13z"/>
<path d="M7967 2581 c-5 -22 0 -31 20 -31 7 0 13 11 13 25 0 30 -25 34 -33 6z"/>
<path d="M8090 2570 c0 -36 13 -39 28 -6 9 20 8 25 -4 30 -23 9 -24 8 -24 -24z"/>
<path d="M8233 2560 c0 -25 2 -35 4 -22 2 12 2 32 0 45 -2 12 -4 2 -4 -23z"/>
<path d="M8360 2590 c0 -6 -4 -8 -10 -5 -6 4 -10 -6 -10 -22 0 -22 2 -25 10
-13 7 11 10 -1 10 -42 0 -31 -4 -60 -10 -63 -6 -4 -10 -55 -10 -120 0 -65 4
-116 10 -120 6 -3 10 -36 10 -72 0 -37 2 -64 5 -61 11 10 16 516 5 523 -5 3
-10 1 -10 -5z"/>
<path d="M8479 2598 c-1 -2 -2 -113 -3 -248 -1 -162 2 -247 8 -252 7 -5 7 -8
-1 -8 -9 0 -13 -15 -12 -42 1 -32 3 -37 7 -20 4 13 10 22 15 20 4 -2 9 122 11
275 4 234 2 277 -10 277 -8 0 -15 -1 -15 -2z"/>
<path d="M8608 2381 c-4 -308 -3 -352 13 -362 19 -12 28 74 23 216 -2 61 -4
120 -4 133 0 13 -4 20 -10 17 -5 -3 -10 3 -10 14 0 12 3 21 8 21 4 0 7 37 7
83 0 60 -4 84 -12 84 -10 0 -14 -49 -15 -206z"/>
<path d="M8738 2479 c-1 -151 3 -473 8 -478 2 -2 11 4 20 13 13 14 14 22 6 39
-7 14 -13 117 -15 274 -4 258 -16 358 -19 152z"/>
<path d="M5217 2553 c-10 -9 -9 -23 2 -23 5 0 11 7 15 15 5 15 -5 20 -17 8z"/>
<path d="M4900 2530 c0 -5 5 -10 10 -10 6 0 10 5 10 10 0 6 -4 10 -10 10 -5 0
-10 -4 -10 -10z"/>
<path d="M5180 2529 c0 -5 5 -7 10 -4 6 3 10 8 10 11 0 2 -4 4 -10 4 -5 0 -10
-5 -10 -11z"/>
<path d="M8227 2470 c-15 -84 -17 -186 -3 -230 l13 -45 6 70 c4 39 5 86 3 105
-2 19 1 41 6 48 7 8 7 16 0 25 -5 6 -12 23 -14 37 -4 22 -5 21 -11 -10z"/>
<path d="M8088 2393 c-4 -93 5 -223 15 -200 4 10 7 29 7 41 0 13 3 26 7 30 11
11 12 156 2 156 -5 0 -9 9 -9 20 0 11 -4 20 -9 20 -5 0 -11 -30 -13 -67z"/>
<path d="M4976 2223 c-3 -3 -6 -19 -6 -34 0 -15 -4 -30 -10 -34 -5 -3 -7 -12
-3 -20 3 -9 -1 -15 -10 -15 -12 0 -13 -7 -5 -40 6 -22 14 -40 19 -40 13 0 11
-84 -2 -97 -6 -6 -13 -25 -15 -41 -3 -25 0 -29 21 -29 31 0 34 15 33 200 0
136 -5 167 -22 150z"/>
<path d="M3876 2213 c-3 -3 -6 -21 -6 -40 0 -18 -8 -41 -18 -51 -14 -14 -16
-25 -10 -50 5 -17 13 -34 18 -37 13 -8 13 -105 0 -105 -5 0 -12 -11 -16 -24
-6 -24 -49 -42 -60 -24 -3 4 -9 6 -13 4 -4 -3 -18 9 -31 26 -18 25 -22 39 -18
84 3 33 12 62 23 74 10 11 14 21 9 21 -5 1 9 5 31 9 31 5 36 8 22 14 -22 11
-59 1 -88 -23 -22 -18 -24 -27 -23 -100 1 -74 3 -83 28 -106 24 -22 36 -25
102 -25 l74 0 0 174 c0 159 -5 198 -24 179z"/>
<path d="M1302 2028 c3 -169 4 -183 22 -186 17 -4 18 5 15 170 -3 162 -8 198
-30 198 -6 0 -8 -79 -7 -182z"/>
<path d="M1857 2204 c-4 -4 -7 -32 -7 -61 0 -31 -4 -52 -9 -48 -5 3 -34 7 -64
9 -48 4 -56 2 -60 -15 -3 -10 -12 -19 -21 -19 -17 0 -21 -36 -17 -125 3 -55
10 -75 27 -75 8 0 14 -7 14 -15 0 -13 15 -15 86 -13 l85 2 -3 173 c-3 159 -11
207 -31 187z m-33 -141 c3 -10 13 -29 21 -43 19 -32 19 -84 1 -102 -7 -8 -16
-23 -20 -34 -10 -32 -63 -25 -93 12 -20 24 -24 38 -20 81 5 70 28 103 71 103
23 0 36 -6 40 -17z"/>
<path d="M2380 2199 c0 -5 5 -7 10 -4 6 3 10 8 10 11 0 2 -4 4 -10 4 -5 0 -10
-5 -10 -11z"/>
<path d="M2937 2203 c-4 -3 -7 -28 -7 -55 0 -42 -2 -48 -20 -45 -11 2 -22 6
-25 9 -11 11 -70 -2 -82 -18 -6 -9 -16 -13 -22 -9 -6 3 -11 3 -11 -2 -1 -4 -5
-28 -10 -53 -13 -65 -2 -141 21 -147 11 -3 19 -12 19 -19 0 -19 116 -20 123
-1 4 10 6 10 6 0 1 -20 31 -15 32 5 1 17 1 81 0 255 -1 80 -6 98 -24 80z m-23
-154 c19 -43 24 -118 8 -128 -5 -3 -11 -15 -13 -25 -3 -14 -14 -20 -41 -23
-31 -3 -39 1 -59 28 -25 36 -29 106 -7 148 17 34 27 41 64 41 26 0 33 -6 48
-41z"/>
<path d="M68 2148 c-2 -20 -8 -32 -16 -30 -23 4 -26 -30 -4 -47 18 -14 21 -29
24 -118 2 -56 6 -104 9 -108 4 -3 22 -7 40 -8 38 -2 55 27 21 35 -39 11 -45
215 -6 208 18 -3 14 19 -5 30 -14 7 -21 21 -21 40 0 23 -5 30 -19 30 -15 0
-21 -8 -23 -32z"/>
<path d="M750 2157 c0 -34 -10 -58 -21 -51 -5 3 -9 -4 -9 -16 0 -12 4 -19 9
-16 15 10 21 -22 21 -108 0 -91 19 -134 59 -131 34 2 36 13 7 40 -26 24 -27
28 -24 112 3 77 5 88 21 87 11 -1 17 5 17 18 0 10 -4 17 -9 14 -12 -8 -28 14
-33 44 -4 34 -38 40 -38 7z"/>
<path d="M4036 2116 c-53 -31 -61 -48 -61 -126 0 -69 2 -77 28 -102 41 -41
101 -39 142 4 27 29 30 37 30 100 -1 58 -4 71 -25 90 -33 31 -70 50 -70 36 0
-7 -4 -7 -12 0 -9 6 -19 6 -32 -2z m84 -31 c0 -9 6 -18 14 -21 16 -6 22 -124
6 -124 -5 0 -12 -11 -16 -24 -6 -26 -34 -36 -72 -27 -50 13 -69 116 -31 177
18 29 26 34 60 34 28 0 39 -4 39 -15z"/>
<path d="M4860 2122 c-8 -3 -26 -16 -40 -29 -21 -20 -25 -32 -26 -86 -2 -71 9
-107 31 -107 8 0 15 -7 15 -16 0 -21 71 -16 78 6 4 12 2 13 -9 3 -20 -16 -59
3 -77 37 -29 56 -1 167 48 182 7 2 10 7 5 10 -6 3 -17 3 -25 0z"/>
<path d="M5136 2123 c-33 -9 -64 -52 -71 -99 -7 -51 9 -114 31 -114 8 0 14 -9
14 -20 0 -15 7 -20 25 -20 30 0 33 15 5 30 -11 6 -20 20 -20 31 0 12 -4 17
-11 14 -7 -5 -9 5 -7 26 l3 34 88 3 c80 3 87 4 87 23 0 25 -17 59 -30 59 -6 0
-10 -7 -10 -16 0 -26 -32 -49 -71 -50 -30 -1 -42 3 -54 22 -14 22 -14 25 0 30
8 3 15 12 15 20 0 8 7 14 15 14 8 0 15 5 15 10 0 6 -1 9 -2 9 -2 -1 -12 -4
-22 -6z"/>
<path d="M5205 2120 c-3 -5 1 -10 10 -10 9 0 13 5 10 10 -3 6 -8 10 -10 10 -2
0 -7 -4 -10 -10z"/>
<path d="M2560 2100 c0 -14 6 -18 26 -15 14 1 31 -4 38 -11 8 -7 16 -10 20 -7
3 4 7 -2 8 -13 0 -10 2 -30 3 -44 2 -14 3 -55 4 -92 1 -54 4 -68 17 -68 13 0
15 16 13 102 -2 106 -12 148 -36 148 -7 0 -13 5 -13 12 0 9 -3 9 -11 1 -7 -7
-21 -8 -40 -3 -25 7 -29 6 -29 -10z"/>
<path d="M3206 2108 c-36 -20 -56 -48 -62 -87 -8 -47 3 -131 17 -131 5 0 18
-9 29 -20 29 -29 106 -26 114 4 6 24 -2 36 -12 18 -8 -12 -31 -16 -68 -14 -24
2 -54 58 -54 103 0 17 9 49 20 73 17 38 23 43 51 42 17 -1 37 -9 44 -19 14
-20 25 -22 25 -4 -1 35 -65 58 -104 35z"/>
<path d="M3462 2102 c-2 -7 -10 -11 -16 -9 -7 3 -13 -3 -13 -13 -2 -21 32 -16
41 6 4 10 18 14 43 12 49 -2 73 -17 73 -45 0 -27 -28 -44 -62 -38 -19 4 -28
-1 -36 -18 -6 -12 -11 -17 -11 -10 -1 19 -49 -9 -55 -32 -8 -30 -7 -68 3 -84
13 -20 111 -23 118 -4 7 18 -2 27 -19 17 -31 -20 -78 3 -78 37 0 21 28 51 41
44 5 -4 9 -1 9 5 0 15 44 30 69 23 15 -4 21 -13 21 -34 0 -16 -4 -29 -10 -29
-5 0 -10 -11 -10 -25 0 -16 6 -25 15 -25 8 0 15 -4 15 -10 0 -5 7 -10 16 -10
13 0 15 15 11 111 -6 136 -12 144 -98 144 -42 0 -63 -4 -67 -13z"/>
<path d="M4255 2112 c-9 -10 -5 -241 4 -247 15 -8 25 35 22 89 -1 28 3 70 9
95 6 25 9 50 8 56 -3 10 -35 15 -43 7z"/>
<path d="M240 2096 c0 -7 -9 -20 -21 -30 -19 -16 -21 -26 -17 -96 3 -72 6 -80
33 -106 26 -25 38 -29 85 -28 44 0 60 4 78 22 27 27 28 38 3 45 -13 3 -21 -1
-24 -15 -3 -11 -10 -17 -16 -14 -5 4 -12 2 -15 -3 -18 -29 -96 31 -96 74 0 27
-1 27 105 26 32 0 62 4 66 10 10 17 -4 63 -29 94 -22 27 -29 30 -88 31 -41 0
-64 -3 -64 -10z m112 -31 c18 -7 29 -38 19 -51 -3 -5 -31 -9 -61 -9 -43 0 -55
4 -58 17 -8 40 47 64 100 43z"/>
<path d="M506 2087 c-2 -10 -9 -16 -15 -12 -6 3 -11 -2 -12 -12 -4 -65 16 -95
61 -90 14 1 32 -6 40 -15 8 -10 26 -19 40 -21 20 -3 26 -10 28 -35 3 -27 0
-32 -20 -33 -71 -5 -98 1 -120 23 -21 21 -23 21 -26 4 -2 -10 6 -27 19 -39 18
-17 36 -21 91 -22 50 -1 68 2 68 12 0 8 7 16 15 19 10 4 15 20 15 49 0 43 -10
55 -48 55 -8 0 -23 7 -32 15 -9 8 -32 16 -51 19 -31 3 -34 6 -34 37 l0 33 58
1 c46 1 58 -3 63 -17 8 -25 44 -23 44 2 0 11 -6 20 -14 20 -8 0 -16 6 -18 12
-3 9 -29 13 -76 14 -62 1 -71 -1 -76 -19z"/>
<path d="M1443 2087 c-43 -33 -44 -37 -41 -117 3 -66 7 -79 30 -104 23 -24 36
-28 75 -28 76 0 83 1 83 16 0 8 5 16 12 18 8 3 8 9 0 24 -11 18 -12 18 -18 -4
-4 -14 -12 -21 -20 -18 -8 3 -14 2 -14 -3 0 -4 -14 -8 -31 -8 -39 0 -84 54
-75 90 5 21 10 23 83 21 86 -1 103 2 103 21 0 22 -33 80 -54 95 -33 24 -100
22 -133 -3z m124 -20 c2 -3 5 -17 6 -33 2 -29 1 -29 -56 -32 -65 -3 -80 11
-56 54 11 22 18 24 57 20 24 -3 46 -7 49 -9z"/>
<path d="M2380 1982 c0 -71 3 -131 6 -135 3 -3 11 -4 17 -1 17 6 7 256 -10
262 -10 3 -13 -27 -13 -126z"/>
<path d="M2484 2096 c-3 -7 -3 -64 -2 -126 3 -101 5 -115 21 -118 16 -3 18 4
16 70 -1 40 3 90 10 111 7 21 11 44 8 51 -7 18 -47 27 -53 12z"/>
<path d="M3046 2103 c-3 -3 -6 -62 -6 -130 0 -103 2 -123 15 -123 13 0 15 20
15 124 0 114 -6 147 -24 129z"/>
<path d="M10001 1954 c0 -11 3 -14 6 -6 3 7 2 16 -1 19 -3 4 -6 -2 -5 -13z"/>
<path d="M5202 1895 c-12 -7 -26 -16 -30 -20 -9 -10 50 4 61 15 15 14 -7 17
-31 5z"/>
<path d="M9761 1660 c-1 -8 -4 -26 -7 -40 -5 -19 -4 -22 5 -14 7 6 11 24 8 40
-2 16 -5 22 -6 14z"/>
<path d="M9692 1575 c0 -16 2 -22 5 -12 2 9 2 23 0 30 -3 6 -5 -1 -5 -18z"/>
<path d="M9659 1562 c-3 -20 -2 -29 4 -23 5 5 7 19 5 32 -3 20 -5 19 -9 -9z"/>
<path d="M84 1546 c-3 -7 -2 -91 3 -186 7 -161 9 -173 28 -176 10 -2 25 2 32
8 9 7 13 7 13 0 0 -22 83 -3 113 25 28 27 29 31 25 105 -3 71 -6 80 -33 107
-34 34 -103 49 -112 25 -10 -27 -23 -2 -23 46 0 34 -4 50 -16 54 -22 8 -24 8
-30 -8z m136 -126 c0 -5 7 -16 17 -25 23 -23 31 -115 11 -129 -8 -6 -16 -15
-16 -21 -1 -5 -16 -11 -34 -13 -27 -2 -36 2 -49 25 -37 67 -10 166 45 169 14
1 26 -2 26 -6z"/>
<path d="M1230 1534 c-12 -22 -12 -27 0 -34 10 -6 18 -4 24 8 5 9 14 20 20 25
8 5 6 10 -4 17 -22 14 -25 13 -40 -16z"/>
<path d="M9620 1534 c0 -14 4 -23 10 -19 6 3 10 15 10 26 0 10 -4 19 -10 19
-5 0 -10 -12 -10 -26z"/>
<path d="M9593 1515 c0 -22 2 -30 4 -17 2 12 2 30 0 40 -3 9 -5 -1 -4 -23z"/>
<path d="M631 1510 c-1 -24 -8 -42 -23 -54 l-22 -19 22 -15 c20 -13 22 -23 22
-108 0 -81 3 -97 20 -111 24 -21 57 -26 66 -11 4 6 -3 19 -16 28 -20 15 -24
29 -28 100 -4 78 -3 84 19 102 l24 19 -22 16 c-13 8 -23 26 -23 39 0 14 -6 24
-14 24 -8 0 -17 6 -19 13 -3 6 -6 -4 -6 -23z"/>
<path d="M9558 1514 c-5 -4 -8 -16 -8 -28 0 -14 3 -17 11 -9 6 6 9 19 7 28 -1
9 -6 13 -10 9z"/>
<path d="M9520 1490 c0 -13 -7 -20 -20 -20 -15 0 -20 -7 -20 -25 0 -14 5 -25
10 -25 6 0 10 9 10 20 0 25 17 26 23 3 3 -10 5 1 6 25 0 23 -1 42 -4 42 -3 0
-5 -9 -5 -20z"/>
<path d="M7195 1460 c3 -5 8 -10 11 -10 2 0 4 5 4 10 0 6 -5 10 -11 10 -5 0
-7 -4 -4 -10z"/>
<path d="M390 1446 c0 -9 -7 -16 -15 -16 -8 0 -15 -9 -15 -20 0 -24 35 -28 47
-5 11 19 73 27 94 12 21 -16 30 -45 17 -53 -6 -4 -28 -6 -49 -6 -23 1 -39 -3
-42 -12 -3 -8 -20 -17 -37 -21 l-32 -7 4 -59 c2 -32 7 -62 11 -65 4 -4 33 -8
64 -9 43 -2 61 2 70 14 11 15 13 14 25 -2 11 -15 16 -16 29 -5 23 19 12 217
-14 246 -23 26 -157 32 -157 8z m138 -158 c2 -20 -1 -28 -12 -28 -9 0 -16 -7
-16 -15 0 -8 -10 -16 -22 -17 -13 0 -30 -2 -38 -3 -39 -4 -57 52 -20 62 11 3
20 12 20 20 0 11 11 13 43 11 38 -3 42 -6 45 -30z"/>
<path d="M825 1450 c-4 -6 -11 -8 -16 -5 -5 4 -9 0 -9 -7 0 -7 -9 -19 -20 -26
-16 -10 -20 -23 -20 -71 0 -64 8 -93 38 -129 15 -20 29 -24 85 -27 60 -3 67
-1 67 16 0 10 7 19 15 19 19 0 19 14 -1 30 -13 11 -16 10 -21 -9 -3 -12 -11
-20 -17 -18 -6 2 -24 0 -39 -4 -23 -7 -32 -3 -50 17 -25 29 -39 71 -27 79 5 3
45 6 89 6 l81 1 0 39 c0 26 -5 42 -15 45 -8 4 -15 12 -15 20 0 7 -9 18 -19 24
-25 13 -98 13 -106 0z m87 -36 c10 -5 19 -20 20 -34 3 -22 -1 -24 -37 -23 -93
0 -98 4 -70 46 15 24 57 29 87 11z"/>
<path d="M1040 1331 c0 -95 3 -131 13 -140 22 -17 27 -3 27 78 0 118 8 151 35
151 29 0 55 10 55 20 0 15 -62 18 -67 3 -3 -8 -10 -10 -17 -5 -6 5 -19 12 -28
15 -17 6 -18 -4 -18 -122z"/>
<path d="M1210 1325 c0 -128 1 -135 20 -135 19 0 20 7 20 123 0 117 -7 147
-32 147 -4 0 -8 -61 -8 -135z"/>
<path d="M1346 1437 c-2 -11 -9 -16 -15 -12 -7 3 -11 -2 -11 -14 0 -27 26 -27
40 -1 9 17 18 20 50 16 44 -5 70 -25 70 -54 0 -18 -6 -20 -47 -19 -32 1 -48
-4 -52 -14 -3 -7 -17 -16 -31 -17 -34 -5 -35 -7 -35 -64 0 -62 15 -75 87 -74
42 1 53 5 56 19 3 14 -4 17 -37 15 -22 -1 -47 5 -56 12 -20 17 -19 49 3 57 9
4 22 13 28 21 10 14 69 20 80 9 13 -12 11 -49 -1 -54 -8 -3 -15 -11 -15 -19 0
-19 36 -54 56 -54 15 0 16 12 10 107 -6 99 -21 151 -44 154 -4 0 -35 2 -69 3
-53 1 -62 -1 -67 -17z"/>
<path d="M9450 1428 c0 -25 3 -29 10 -18 13 20 13 50 0 50 -5 0 -10 -15 -10
-32z"/>
<path d="M9416 1435 c-9 -24 -7 -55 3 -55 13 0 24 51 13 62 -6 6 -12 3 -16 -7z"/>
<path d="M9345 1393 l-8 -28 -7 25 -7 25 -8 -28 c-4 -16 -3 -38 3 -50 9 -19
11 -20 11 -3 1 12 6 16 16 12 13 -5 20 5 16 27 0 4 4 7 9 7 6 0 10 -7 10 -16
0 -8 4 -13 8 -10 12 7 14 66 2 66 -5 0 -10 -5 -10 -11 0 -8 -4 -8 -14 0 -11 9
-15 6 -21 -16z"/>
<path d="M7371 1355 c0 -35 1 -37 10 -17 6 15 5 30 -1 40 -7 13 -9 8 -9 -23z"/>
<path d="M9280 1365 c0 -14 -4 -25 -10 -25 -5 0 -10 8 -10 18 0 14 -2 15 -10
2 -5 -8 -10 -22 -10 -31 0 -22 49 -20 51 1 1 8 3 25 4 38 1 12 -2 22 -6 22 -5
0 -9 -11 -9 -25z"/>
<path d="M7342 1360 c0 -14 2 -19 5 -12 2 6 2 18 0 25 -3 6 -5 1 -5 -13z"/>
<path d="M7443 1325 c0 -22 2 -30 4 -17 2 12 2 30 0 40 -3 9 -5 -1 -4 -23z"/>
<path d="M9175 1331 c-8 -38 3 -81 16 -60 8 13 4 77 -5 86 -2 2 -7 -9 -11 -26z"/>
<path d="M9210 1314 c0 -27 4 -43 10 -39 6 3 10 24 10 46 0 21 -4 39 -10 39
-5 0 -10 -21 -10 -46z"/>
<path d="M7547 1334 c-4 -4 -7 -17 -7 -30 0 -12 -3 -31 -7 -41 -6 -13 -10 -6
-14 27 -5 39 -6 35 -7 -27 -2 -80 -7 -75 71 -77 25 -1 42 4 47 14 6 10 9 11
10 3 0 -28 20 -11 20 17 0 17 5 30 10 30 6 0 10 -8 10 -17 0 -15 2 -14 15 3
14 19 14 18 15 -3 0 -13 5 -23 10 -23 12 0 12 47 0 75 l-9 20 0 -20 c-1 -16
-3 -17 -10 -6 -11 18 -61 24 -62 8 0 -7 -7 2 -14 18 -11 22 -14 25 -15 11 0
-19 0 -19 -13 -1 -8 10 -19 15 -25 11 -5 -3 -12 -1 -14 5 -2 5 -7 7 -11 3z
m-12 -124 c3 -5 1 -10 -4 -10 -6 0 -11 5 -11 10 0 6 2 10 4 10 3 0 8 -4 11
-10z"/>
<path d="M9110 1308 c0 -40 -20 -45 -21 -6 l-1 33 -10 -32 c-6 -17 -7 -44 -3
-60 l7 -28 10 25 c6 16 12 20 15 12 4 -10 9 -8 19 5 9 12 13 13 14 5 0 -7 5
-10 10 -7 6 3 10 23 10 45 0 34 -2 38 -25 36 -20 -1 -25 -6 -25 -28z"/>
<path d="M7470 1320 c0 -5 5 -10 10 -10 6 0 10 5 10 10 0 6 -4 10 -10 10 -5 0
-10 -4 -10 -10z"/>
<path d="M9005 1282 c-5 -11 -9 -13 -12 -4 -9 24 -23 0 -23 -39 0 -24 4 -38
10 -34 6 3 10 15 10 26 0 10 5 19 10 19 6 0 10 -5 10 -11 0 -5 5 -7 10 -4 12
8 13 52 1 59 -5 3 -12 -2 -16 -12z"/>
<path d="M9043 1260 c0 -25 2 -35 4 -22 2 12 2 32 0 45 -2 12 -4 2 -4 -23z"/>
<path d="M8873 1250 c-9 -18 -12 -20 -12 -7 -1 21 -20 23 -22 2 -3 -28 -4 -33
-11 -41 -5 -4 -8 3 -8 15 0 12 -4 19 -10 16 -11 -7 -14 -75 -4 -75 4 0 13 8
20 18 13 16 13 16 15 -3 0 -13 5 -8 12 15 11 35 11 35 15 7 2 -15 8 -25 13
-21 5 3 7 10 3 15 -3 6 3 13 15 16 16 4 21 13 20 37 l-1 31 -13 -30 -13 -30
-4 30 -4 30 -11 -25z"/>
<path d="M8939 1248 c0 -13 -2 -34 -5 -46 -3 -16 0 -22 8 -20 16 6 24 88 9 88
-6 0 -11 -10 -12 -22z"/>
<path d="M7813 1240 c5 -31 17 -36 17 -7 0 15 -4 27 -10 27 -5 0 -9 -9 -7 -20z"/>
<path d="M7752 1230 c0 -14 2 -19 5 -12 2 6 2 18 0 25 -3 6 -5 1 -5 -13z"/>
<path d="M8737 1243 c-11 -10 -8 -81 3 -88 6 -3 10 1 10 9 0 9 5 16 10 16 6 0
10 -8 10 -17 0 -12 3 -14 11 -6 16 16 7 79 -10 75 -8 -2 -17 2 -21 8 -3 5 -9
7 -13 3z"/>
<path d="M7780 1219 c0 -5 5 -7 10 -4 6 3 10 8 10 11 0 2 -4 4 -10 4 -5 0 -10
-5 -10 -11z"/>
<path d="M7849 1188 c3 -31 6 -38 11 -24 7 22 1 66 -9 66 -4 0 -5 -19 -2 -42z"/>
<path d="M7884 1190 c0 -22 4 -40 9 -40 10 0 9 68 -2 74 -5 3 -8 -12 -7 -34z"/>
<path d="M7923 1190 c0 -25 2 -35 4 -22 2 12 2 32 0 45 -2 12 -4 2 -4 -23z"/>
<path d="M7950 1201 c0 -17 5 -33 10 -36 6 -4 10 8 10 29 0 20 -4 36 -10 36
-5 0 -10 -13 -10 -29z"/>
<path d="M7993 1185 c0 -27 2 -38 4 -22 2 15 2 37 0 50 -2 12 -4 0 -4 -28z"/>
<path d="M8059 1213 c0 -10 -2 -27 -3 -39 -1 -11 1 -29 5 -40 5 -12 8 2 8 39
1 31 -1 57 -4 57 -3 0 -5 -8 -6 -17z"/>
<path d="M8087 1208 c-3 -13 -2 -39 3 -58 7 -32 8 -31 9 23 1 60 -3 72 -12 35z"/>
<path d="M8121 1172 c-1 -40 3 -61 9 -57 12 7 12 72 0 100 -6 14 -9 1 -9 -43z"/>
<path d="M8597 1205 c-2 -14 -1 -40 3 -58 l7 -32 6 40 c7 49 6 75 -4 75 -3 0
-9 -11 -12 -25z"/>
<path d="M8630 1175 c0 -30 4 -55 8 -55 5 0 10 25 11 55 1 33 -2 55 -8 55 -7
0 -11 -23 -11 -55z"/>
<path d="M8666 1203 c-3 -16 -2 -41 3 -58 8 -26 9 -23 10 28 1 62 -4 73 -13
30z"/>
<path d="M8700 1190 c0 -22 5 -40 10 -40 6 0 10 18 10 40 0 22 -4 40 -10 40
-5 0 -10 -18 -10 -40z"/>
<path d="M8361 1163 c0 -42 3 -52 9 -38 12 28 12 83 0 90 -6 4 -10 -16 -9 -52z"/>
<path d="M8466 1204 c-10 -25 -7 -84 4 -84 6 0 10 23 10 50 0 52 -4 61 -14 34z"/>
<path d="M8560 1183 c0 -21 5 -45 10 -53 7 -11 10 0 10 38 0 28 -4 52 -10 52
-5 0 -10 -17 -10 -37z"/>
<path d="M1620 1200 c0 -5 5 -10 10 -10 6 0 10 5 10 10 0 6 -4 10 -10 10 -5 0
-10 -4 -10 -10z"/>
<path d="M8155 1180 c-3 -16 -2 -37 4 -47 8 -14 10 -8 11 30 0 54 -5 60 -15
17z"/>
<path d="M8229 1170 c-6 -45 -4 -58 7 -48 3 3 4 26 2 49 l-3 44 -6 -45z"/>
<path d="M8326 1186 c-8 -32 3 -56 15 -33 5 8 5 26 1 38 -9 23 -9 23 -16 -5z"/>
<path d="M8431 1173 c-1 -24 1 -43 3 -43 8 0 12 48 5 66 -5 13 -8 7 -8 -23z"/>
<path d="M8497 1203 c-10 -10 -8 -56 3 -73 7 -11 10 -2 10 33 0 48 -1 52 -13
40z"/>
<path d="M8530 1163 c0 -35 3 -44 10 -33 13 20 13 67 0 75 -6 4 -10 -12 -10
-42z"/>
<path d="M8018 1194 c-8 -7 2 -44 11 -44 8 0 8 37 0 45 -3 3 -8 2 -11 -1z"/>
<path d="M8191 1153 c0 -36 3 -43 9 -28 12 28 12 75 0 75 -5 0 -10 -21 -9 -47z"/>
<path d="M8398 1194 c-5 -4 -8 -25 -8 -48 0 -28 3 -37 11 -29 6 6 9 27 7 48
-2 20 -6 33 -10 29z"/>
<path d="M8905 1190 c-3 -5 -1 -10 4 -10 6 0 11 5 11 10 0 6 -2 10 -4 10 -3 0
-8 -4 -11 -10z"/>
<path d="M8250 1168 c0 -13 5 -30 10 -38 7 -11 10 -5 10 23 0 20 -4 37 -10 37
-5 0 -10 -10 -10 -22z"/>
<path d="M8292 1155 c3 -47 18 -57 18 -11 0 19 -5 38 -10 41 -7 4 -10 -7 -8
-30z"/>
<path d="M8741 1124 c0 -11 3 -14 6 -6 3 7 2 16 -1 19 -3 4 -6 -2 -5 -13z"/>
</g>
</svg>
